<mxfile host="app.diagrams.net" modified="2023-04-13T07:31:59.191Z" agent="Mozilla/5.0 (Windows NT 10.0; Win64; x64) AppleWebKit/537.36 (KHTML, like Gecko) Chrome/112.0.0.0 Safari/537.36 Edg/112.0.1722.39" etag="lIU33MTYn53HF3h4CWIe" version="21.1.4" type="github">
  <diagram name="Page-1" id="2YBvvXClWsGukQMizWep">
    <mxGraphModel dx="1434" dy="764" grid="1" gridSize="10" guides="1" tooltips="1" connect="1" arrows="1" fold="1" page="1" pageScale="1" pageWidth="850" pageHeight="1100" math="0" shadow="0">
      <root>
        <mxCell id="0" />
        <mxCell id="1" parent="0" />
        <mxCell id="I8M-kXGc4uCNpKgczoVp-2" value="USER" style="shape=umlActor;verticalLabelPosition=bottom;verticalAlign=top;html=1;outlineConnect=0;" parent="1" vertex="1">
          <mxGeometry x="130" y="150" width="30" height="60" as="geometry" />
        </mxCell>
        <mxCell id="I8M-kXGc4uCNpKgczoVp-3" value="" style="shape=cylinder3;whiteSpace=wrap;html=1;boundedLbl=1;backgroundOutline=1;size=15;" parent="1" vertex="1">
          <mxGeometry x="500" y="130" width="60" height="80" as="geometry" />
        </mxCell>
        <mxCell id="I8M-kXGc4uCNpKgczoVp-4" value="" style="ellipse;shape=cloud;whiteSpace=wrap;html=1;" parent="1" vertex="1">
          <mxGeometry x="270" y="130" width="120" height="80" as="geometry" />
        </mxCell>
        <mxCell id="I8M-kXGc4uCNpKgczoVp-5" value="" style="ellipse;whiteSpace=wrap;html=1;aspect=fixed;" parent="1" vertex="1">
          <mxGeometry x="720" y="130" width="80" height="80" as="geometry" />
        </mxCell>
        <mxCell id="I8M-kXGc4uCNpKgczoVp-8" value="Server" style="rounded=0;whiteSpace=wrap;html=1;" parent="1" vertex="1">
          <mxGeometry x="295" y="215" width="70" height="20" as="geometry" />
        </mxCell>
        <mxCell id="I8M-kXGc4uCNpKgczoVp-9" value="DB" style="rounded=0;whiteSpace=wrap;html=1;" parent="1" vertex="1">
          <mxGeometry x="495" y="216" width="70" height="20" as="geometry" />
        </mxCell>
        <mxCell id="I8M-kXGc4uCNpKgczoVp-11" value="PG" style="rounded=0;whiteSpace=wrap;html=1;" parent="1" vertex="1">
          <mxGeometry x="735" y="216" width="50" height="20" as="geometry" />
        </mxCell>
        <mxCell id="I8M-kXGc4uCNpKgczoVp-15" value="" style="endArrow=none;dashed=1;html=1;dashPattern=1 3;strokeWidth=3;rounded=0;entryX=0.5;entryY=1;entryDx=0;entryDy=0;" parent="1" source="I8M-kXGc4uCNpKgczoVp-19" target="I8M-kXGc4uCNpKgczoVp-8" edge="1">
          <mxGeometry width="50" height="50" relative="1" as="geometry">
            <mxPoint x="330" y="580" as="sourcePoint" />
            <mxPoint x="450" y="370" as="targetPoint" />
          </mxGeometry>
        </mxCell>
        <mxCell id="I8M-kXGc4uCNpKgczoVp-16" value="" style="endArrow=none;dashed=1;html=1;dashPattern=1 3;strokeWidth=3;rounded=0;" parent="1" edge="1">
          <mxGeometry width="50" height="50" relative="1" as="geometry">
            <mxPoint x="150" y="880" as="sourcePoint" />
            <mxPoint x="146" y="232" as="targetPoint" />
          </mxGeometry>
        </mxCell>
        <mxCell id="I8M-kXGc4uCNpKgczoVp-17" value="" style="endArrow=none;dashed=1;html=1;dashPattern=1 3;strokeWidth=3;rounded=0;" parent="1" edge="1">
          <mxGeometry width="50" height="50" relative="1" as="geometry">
            <mxPoint x="530" y="282" as="sourcePoint" />
            <mxPoint x="530" y="239" as="targetPoint" />
          </mxGeometry>
        </mxCell>
        <mxCell id="I8M-kXGc4uCNpKgczoVp-18" value="" style="endArrow=none;dashed=1;html=1;dashPattern=1 3;strokeWidth=3;rounded=0;" parent="1" source="I8M-kXGc4uCNpKgczoVp-43" edge="1">
          <mxGeometry width="50" height="50" relative="1" as="geometry">
            <mxPoint x="761" y="592" as="sourcePoint" />
            <mxPoint x="761" y="242" as="targetPoint" />
          </mxGeometry>
        </mxCell>
        <mxCell id="I8M-kXGc4uCNpKgczoVp-20" value="" style="endArrow=none;dashed=1;html=1;dashPattern=1 3;strokeWidth=3;rounded=0;entryX=0.5;entryY=1;entryDx=0;entryDy=0;" parent="1" source="I8M-kXGc4uCNpKgczoVp-38" target="I8M-kXGc4uCNpKgczoVp-19" edge="1">
          <mxGeometry width="50" height="50" relative="1" as="geometry">
            <mxPoint x="330" y="580" as="sourcePoint" />
            <mxPoint x="330" y="240" as="targetPoint" />
          </mxGeometry>
        </mxCell>
        <mxCell id="I8M-kXGc4uCNpKgczoVp-19" value="" style="rounded=0;whiteSpace=wrap;html=1;" parent="1" vertex="1">
          <mxGeometry x="325" y="260" width="10" height="110" as="geometry" />
        </mxCell>
        <mxCell id="I8M-kXGc4uCNpKgczoVp-21" value="" style="endArrow=classic;html=1;rounded=0;" parent="1" edge="1">
          <mxGeometry width="50" height="50" relative="1" as="geometry">
            <mxPoint x="153" y="268" as="sourcePoint" />
            <mxPoint x="323" y="268" as="targetPoint" />
          </mxGeometry>
        </mxCell>
        <mxCell id="I8M-kXGc4uCNpKgczoVp-22" value="" style="endArrow=classic;html=1;rounded=0;dashed=1;" parent="1" edge="1">
          <mxGeometry width="50" height="50" relative="1" as="geometry">
            <mxPoint x="320" y="369" as="sourcePoint" />
            <mxPoint x="150" y="369" as="targetPoint" />
          </mxGeometry>
        </mxCell>
        <mxCell id="I8M-kXGc4uCNpKgczoVp-23" value="상품 장바구니 담기" style="text;html=1;align=center;verticalAlign=middle;resizable=0;points=[];autosize=1;strokeColor=none;fillColor=none;" parent="1" vertex="1">
          <mxGeometry x="165" y="244" width="130" height="30" as="geometry" />
        </mxCell>
        <mxCell id="I8M-kXGc4uCNpKgczoVp-24" value="장바구니 목록" style="text;html=1;align=center;verticalAlign=middle;resizable=0;points=[];autosize=1;strokeColor=none;fillColor=none;" parent="1" vertex="1">
          <mxGeometry x="190" y="364" width="100" height="30" as="geometry" />
        </mxCell>
        <mxCell id="I8M-kXGc4uCNpKgczoVp-26" value="" style="endArrow=none;dashed=1;html=1;dashPattern=1 3;strokeWidth=3;rounded=0;" parent="1" source="zDuvKexvhS7QAR-DS36Q-13" target="I8M-kXGc4uCNpKgczoVp-25" edge="1">
          <mxGeometry width="50" height="50" relative="1" as="geometry">
            <mxPoint x="530" y="880" as="sourcePoint" />
            <mxPoint x="530" y="242" as="targetPoint" />
          </mxGeometry>
        </mxCell>
        <mxCell id="I8M-kXGc4uCNpKgczoVp-25" value="" style="rounded=0;whiteSpace=wrap;html=1;" parent="1" vertex="1">
          <mxGeometry x="525" y="285" width="10" height="60" as="geometry" />
        </mxCell>
        <mxCell id="I8M-kXGc4uCNpKgczoVp-27" value="" style="endArrow=classic;html=1;rounded=0;" parent="1" edge="1">
          <mxGeometry width="50" height="50" relative="1" as="geometry">
            <mxPoint x="342" y="287" as="sourcePoint" />
            <mxPoint x="522" y="287" as="targetPoint" />
          </mxGeometry>
        </mxCell>
        <mxCell id="I8M-kXGc4uCNpKgczoVp-28" value="" style="endArrow=classic;html=1;rounded=0;dashed=1;" parent="1" edge="1">
          <mxGeometry width="50" height="50" relative="1" as="geometry">
            <mxPoint x="518" y="345" as="sourcePoint" />
            <mxPoint x="338" y="345" as="targetPoint" />
          </mxGeometry>
        </mxCell>
        <mxCell id="I8M-kXGc4uCNpKgczoVp-29" value="상품 정보 조회" style="text;html=1;align=center;verticalAlign=middle;resizable=0;points=[];autosize=1;strokeColor=none;fillColor=none;" parent="1" vertex="1">
          <mxGeometry x="378" y="264" width="100" height="30" as="geometry" />
        </mxCell>
        <mxCell id="I8M-kXGc4uCNpKgczoVp-30" value="상품 상세정보" style="text;html=1;align=center;verticalAlign=middle;resizable=0;points=[];autosize=1;strokeColor=none;fillColor=none;" parent="1" vertex="1">
          <mxGeometry x="381" y="340" width="100" height="30" as="geometry" />
        </mxCell>
        <mxCell id="I8M-kXGc4uCNpKgczoVp-31" value="" style="rounded=0;whiteSpace=wrap;html=1;opacity=40;strokeWidth=3;" parent="1" vertex="1">
          <mxGeometry x="90" y="248" width="460" height="142" as="geometry" />
        </mxCell>
        <mxCell id="I8M-kXGc4uCNpKgczoVp-34" value="loop" style="shape=delay;whiteSpace=wrap;html=1;" parent="1" vertex="1">
          <mxGeometry x="90" y="248" width="50" height="40" as="geometry" />
        </mxCell>
        <mxCell id="I8M-kXGc4uCNpKgczoVp-35" value="" style="endArrow=classic;html=1;rounded=0;" parent="1" edge="1">
          <mxGeometry width="50" height="50" relative="1" as="geometry">
            <mxPoint x="160" y="420" as="sourcePoint" />
            <mxPoint x="320" y="420" as="targetPoint" />
          </mxGeometry>
        </mxCell>
        <mxCell id="I8M-kXGc4uCNpKgczoVp-36" value="상품주문" style="text;html=1;align=center;verticalAlign=middle;resizable=0;points=[];autosize=1;strokeColor=none;fillColor=none;" parent="1" vertex="1">
          <mxGeometry x="198" y="730" width="70" height="30" as="geometry" />
        </mxCell>
        <mxCell id="I8M-kXGc4uCNpKgczoVp-39" value="" style="endArrow=none;dashed=1;html=1;dashPattern=1 3;strokeWidth=3;rounded=0;entryX=0.5;entryY=1;entryDx=0;entryDy=0;" parent="1" source="zDuvKexvhS7QAR-DS36Q-24" target="I8M-kXGc4uCNpKgczoVp-38" edge="1">
          <mxGeometry width="50" height="50" relative="1" as="geometry">
            <mxPoint x="331" y="880" as="sourcePoint" />
            <mxPoint x="330" y="370" as="targetPoint" />
          </mxGeometry>
        </mxCell>
        <mxCell id="I8M-kXGc4uCNpKgczoVp-38" value="" style="rounded=0;whiteSpace=wrap;html=1;" parent="1" vertex="1">
          <mxGeometry x="325" y="420" width="12" height="90" as="geometry" />
        </mxCell>
        <mxCell id="I8M-kXGc4uCNpKgczoVp-40" value="" style="endArrow=classic;html=1;rounded=0;dashed=1;" parent="1" edge="1">
          <mxGeometry width="50" height="50" relative="1" as="geometry">
            <mxPoint x="320" y="505.5" as="sourcePoint" />
            <mxPoint x="160" y="505.5" as="targetPoint" />
            <Array as="points">
              <mxPoint x="240" y="505.5" />
            </Array>
          </mxGeometry>
        </mxCell>
        <mxCell id="I8M-kXGc4uCNpKgczoVp-41" value="주문 승인" style="text;html=1;align=center;verticalAlign=middle;resizable=0;points=[];autosize=1;strokeColor=none;fillColor=none;" parent="1" vertex="1">
          <mxGeometry x="210" y="862" width="70" height="30" as="geometry" />
        </mxCell>
        <mxCell id="I8M-kXGc4uCNpKgczoVp-42" value="" style="endArrow=classic;html=1;rounded=0;" parent="1" edge="1">
          <mxGeometry width="50" height="50" relative="1" as="geometry">
            <mxPoint x="350" y="777" as="sourcePoint" />
            <mxPoint x="750" y="777" as="targetPoint" />
          </mxGeometry>
        </mxCell>
        <mxCell id="I8M-kXGc4uCNpKgczoVp-44" value="" style="endArrow=none;dashed=1;html=1;dashPattern=1 3;strokeWidth=3;rounded=0;" parent="1" target="I8M-kXGc4uCNpKgczoVp-43" edge="1">
          <mxGeometry width="50" height="50" relative="1" as="geometry">
            <mxPoint x="761" y="867" as="sourcePoint" />
            <mxPoint x="761" y="249" as="targetPoint" />
          </mxGeometry>
        </mxCell>
        <mxCell id="I8M-kXGc4uCNpKgczoVp-43" value="" style="rounded=0;whiteSpace=wrap;html=1;" parent="1" vertex="1">
          <mxGeometry x="755" y="777" width="10" height="70" as="geometry" />
        </mxCell>
        <mxCell id="I8M-kXGc4uCNpKgczoVp-45" value="" style="endArrow=classic;html=1;rounded=0;dashed=1;" parent="1" edge="1">
          <mxGeometry width="50" height="50" relative="1" as="geometry">
            <mxPoint x="747" y="847" as="sourcePoint" />
            <mxPoint x="347" y="847" as="targetPoint" />
          </mxGeometry>
        </mxCell>
        <mxCell id="I8M-kXGc4uCNpKgczoVp-46" value="결제요청" style="text;html=1;align=center;verticalAlign=middle;resizable=0;points=[];autosize=1;strokeColor=none;fillColor=none;" parent="1" vertex="1">
          <mxGeometry x="550" y="747" width="70" height="30" as="geometry" />
        </mxCell>
        <mxCell id="I8M-kXGc4uCNpKgczoVp-47" value="결제승인" style="text;html=1;align=center;verticalAlign=middle;resizable=0;points=[];autosize=1;strokeColor=none;fillColor=none;" parent="1" vertex="1">
          <mxGeometry x="550" y="847" width="70" height="30" as="geometry" />
        </mxCell>
        <mxCell id="zDuvKexvhS7QAR-DS36Q-11" value="장바구니 - 주문버튼" style="text;html=1;align=center;verticalAlign=middle;resizable=0;points=[];autosize=1;strokeColor=none;fillColor=none;" parent="1" vertex="1">
          <mxGeometry x="167" y="399" width="130" height="30" as="geometry" />
        </mxCell>
        <mxCell id="zDuvKexvhS7QAR-DS36Q-12" value="주문 페이지" style="text;html=1;align=center;verticalAlign=middle;resizable=0;points=[];autosize=1;strokeColor=none;fillColor=none;" parent="1" vertex="1">
          <mxGeometry x="195" y="501" width="90" height="30" as="geometry" />
        </mxCell>
        <mxCell id="zDuvKexvhS7QAR-DS36Q-14" value="" style="endArrow=none;dashed=1;html=1;dashPattern=1 3;strokeWidth=3;rounded=0;" parent="1" target="zDuvKexvhS7QAR-DS36Q-13" edge="1" source="jddQ9gIMYXKVIM6ZnkUf-10">
          <mxGeometry width="50" height="50" relative="1" as="geometry">
            <mxPoint x="530" y="880" as="sourcePoint" />
            <mxPoint x="530" y="345" as="targetPoint" />
          </mxGeometry>
        </mxCell>
        <mxCell id="zDuvKexvhS7QAR-DS36Q-13" value="" style="rounded=0;whiteSpace=wrap;html=1;" parent="1" vertex="1">
          <mxGeometry x="525" y="440" width="10" height="40" as="geometry" />
        </mxCell>
        <mxCell id="zDuvKexvhS7QAR-DS36Q-15" value="" style="endArrow=classic;html=1;rounded=0;" parent="1" edge="1">
          <mxGeometry width="50" height="50" relative="1" as="geometry">
            <mxPoint x="340" y="440" as="sourcePoint" />
            <mxPoint x="520" y="440" as="targetPoint" />
          </mxGeometry>
        </mxCell>
        <mxCell id="zDuvKexvhS7QAR-DS36Q-16" value="" style="endArrow=classic;html=1;rounded=0;dashed=1;" parent="1" edge="1">
          <mxGeometry width="50" height="50" relative="1" as="geometry">
            <mxPoint x="520" y="480" as="sourcePoint" />
            <mxPoint x="340" y="480" as="targetPoint" />
          </mxGeometry>
        </mxCell>
        <mxCell id="zDuvKexvhS7QAR-DS36Q-17" value="장바구니 목록 조회" style="text;html=1;align=center;verticalAlign=middle;resizable=0;points=[];autosize=1;strokeColor=none;fillColor=none;" parent="1" vertex="1">
          <mxGeometry x="370" y="419" width="130" height="30" as="geometry" />
        </mxCell>
        <mxCell id="zDuvKexvhS7QAR-DS36Q-18" value="장바구니 리스트" style="text;html=1;align=center;verticalAlign=middle;resizable=0;points=[];autosize=1;strokeColor=none;fillColor=none;" parent="1" vertex="1">
          <mxGeometry x="385" y="477" width="110" height="30" as="geometry" />
        </mxCell>
        <mxCell id="zDuvKexvhS7QAR-DS36Q-21" value="" style="endArrow=classic;html=1;rounded=0;" parent="1" edge="1">
          <mxGeometry width="50" height="50" relative="1" as="geometry">
            <mxPoint x="164" y="753" as="sourcePoint" />
            <mxPoint x="314" y="753" as="targetPoint" />
          </mxGeometry>
        </mxCell>
        <mxCell id="zDuvKexvhS7QAR-DS36Q-22" value="" style="endArrow=classic;html=1;rounded=0;dashed=1;" parent="1" edge="1">
          <mxGeometry width="50" height="50" relative="1" as="geometry">
            <mxPoint x="315.75" y="863.5" as="sourcePoint" />
            <mxPoint x="164.25" y="863.5" as="targetPoint" />
            <Array as="points">
              <mxPoint x="235.75" y="863.5" />
            </Array>
          </mxGeometry>
        </mxCell>
        <mxCell id="zDuvKexvhS7QAR-DS36Q-25" value="" style="endArrow=none;dashed=1;html=1;dashPattern=1 3;strokeWidth=3;rounded=0;entryX=0.5;entryY=1;entryDx=0;entryDy=0;" parent="1" target="zDuvKexvhS7QAR-DS36Q-24" edge="1">
          <mxGeometry width="50" height="50" relative="1" as="geometry">
            <mxPoint x="331" y="880" as="sourcePoint" />
            <mxPoint x="331" y="510" as="targetPoint" />
          </mxGeometry>
        </mxCell>
        <mxCell id="zDuvKexvhS7QAR-DS36Q-24" value="" style="rounded=0;whiteSpace=wrap;html=1;" parent="1" vertex="1">
          <mxGeometry x="327" y="750" width="10" height="120" as="geometry" />
        </mxCell>
        <mxCell id="jddQ9gIMYXKVIM6ZnkUf-2" value="" style="endArrow=classic;html=1;rounded=0;" edge="1" parent="1">
          <mxGeometry width="50" height="50" relative="1" as="geometry">
            <mxPoint x="160" y="560" as="sourcePoint" />
            <mxPoint x="320" y="560" as="targetPoint" />
          </mxGeometry>
        </mxCell>
        <mxCell id="jddQ9gIMYXKVIM6ZnkUf-3" value="" style="rounded=0;whiteSpace=wrap;html=1;" vertex="1" parent="1">
          <mxGeometry x="325" y="550" width="15" height="120" as="geometry" />
        </mxCell>
        <mxCell id="jddQ9gIMYXKVIM6ZnkUf-4" value="" style="endArrow=classic;html=1;rounded=0;dashed=1;" edge="1" parent="1">
          <mxGeometry width="50" height="50" relative="1" as="geometry">
            <mxPoint x="312" y="662" as="sourcePoint" />
            <mxPoint x="162" y="662" as="targetPoint" />
          </mxGeometry>
        </mxCell>
        <mxCell id="jddQ9gIMYXKVIM6ZnkUf-5" value="상세페이지 - 구매하기" style="text;html=1;align=center;verticalAlign=middle;resizable=0;points=[];autosize=1;strokeColor=none;fillColor=none;" vertex="1" parent="1">
          <mxGeometry x="172" y="535" width="140" height="30" as="geometry" />
        </mxCell>
        <mxCell id="jddQ9gIMYXKVIM6ZnkUf-6" value="주문페이지" style="text;html=1;align=center;verticalAlign=middle;resizable=0;points=[];autosize=1;strokeColor=none;fillColor=none;" vertex="1" parent="1">
          <mxGeometry x="200" y="659" width="80" height="30" as="geometry" />
        </mxCell>
        <mxCell id="jddQ9gIMYXKVIM6ZnkUf-9" value="" style="endArrow=classic;html=1;rounded=0;" edge="1" parent="1">
          <mxGeometry width="50" height="50" relative="1" as="geometry">
            <mxPoint x="351" y="580" as="sourcePoint" />
            <mxPoint x="511" y="580" as="targetPoint" />
          </mxGeometry>
        </mxCell>
        <mxCell id="jddQ9gIMYXKVIM6ZnkUf-11" value="" style="endArrow=none;dashed=1;html=1;dashPattern=1 3;strokeWidth=3;rounded=0;" edge="1" parent="1" target="jddQ9gIMYXKVIM6ZnkUf-10">
          <mxGeometry width="50" height="50" relative="1" as="geometry">
            <mxPoint x="530" y="880" as="sourcePoint" />
            <mxPoint x="530" y="480" as="targetPoint" />
          </mxGeometry>
        </mxCell>
        <mxCell id="jddQ9gIMYXKVIM6ZnkUf-10" value="" style="rounded=0;whiteSpace=wrap;html=1;" vertex="1" parent="1">
          <mxGeometry x="525" y="580" width="10" height="60" as="geometry" />
        </mxCell>
        <mxCell id="jddQ9gIMYXKVIM6ZnkUf-12" value="" style="endArrow=classic;html=1;rounded=0;dashed=1;" edge="1" parent="1">
          <mxGeometry width="50" height="50" relative="1" as="geometry">
            <mxPoint x="510" y="640" as="sourcePoint" />
            <mxPoint x="350" y="640" as="targetPoint" />
          </mxGeometry>
        </mxCell>
        <mxCell id="jddQ9gIMYXKVIM6ZnkUf-13" value="상품 정보조회" style="text;html=1;align=center;verticalAlign=middle;resizable=0;points=[];autosize=1;strokeColor=none;fillColor=none;" vertex="1" parent="1">
          <mxGeometry x="381" y="550" width="100" height="30" as="geometry" />
        </mxCell>
        <mxCell id="jddQ9gIMYXKVIM6ZnkUf-14" value="상품 상세정보" style="text;html=1;align=center;verticalAlign=middle;resizable=0;points=[];autosize=1;strokeColor=none;fillColor=none;" vertex="1" parent="1">
          <mxGeometry x="385" y="640" width="100" height="30" as="geometry" />
        </mxCell>
      </root>
    </mxGraphModel>
  </diagram>
</mxfile>
